<mxfile host="app.diagrams.net" modified="2024-02-18T08:59:11.255Z" agent="Mozilla/5.0 (Windows NT 10.0; Win64; x64) AppleWebKit/537.36 (KHTML, like Gecko) Chrome/121.0.0.0 Safari/537.36" etag="839Zsd3UhX1Eit3YUiUu" version="23.0.2" type="github">
  <diagram name="Page-1" id="hcv_wD8Ppl5ltnBhb6wF">
    <mxGraphModel dx="1434" dy="738" grid="1" gridSize="10" guides="1" tooltips="1" connect="1" arrows="1" fold="1" page="1" pageScale="1" pageWidth="827" pageHeight="1169" math="0" shadow="0">
      <root>
        <mxCell id="0" />
        <mxCell id="1" parent="0" />
        <mxCell id="xK1gJ9lWxbFAn04bGuzU-1" value="" style="shape=mxgraph.cisco.routers.content_service_router;sketch=0;html=1;pointerEvents=1;dashed=0;fillColor=#036897;strokeColor=#ffffff;strokeWidth=2;verticalLabelPosition=bottom;verticalAlign=top;align=center;outlineConnect=0;" vertex="1" parent="1">
          <mxGeometry x="140" y="310" width="78" height="53" as="geometry" />
        </mxCell>
        <mxCell id="xK1gJ9lWxbFAn04bGuzU-2" value="" style="shape=mxgraph.cisco.routers.content_service_router;sketch=0;html=1;pointerEvents=1;dashed=0;fillColor=#036897;strokeColor=#ffffff;strokeWidth=2;verticalLabelPosition=bottom;verticalAlign=top;align=center;outlineConnect=0;" vertex="1" parent="1">
          <mxGeometry x="50" y="190" width="78" height="53" as="geometry" />
        </mxCell>
      </root>
    </mxGraphModel>
  </diagram>
</mxfile>
